# xmcd
#
# Track frame offsets:
#	150
#	13336
#	25685
#	40601
#	51832
#	68948
#	95472
#	112566
#	126340
#	143664
#	156254
#	174818
#
# Disc length: 2582 seconds
# Revision: 1
# Processed by: cddbd v1.5.2PL0 Copyright (c) Steve Scherf et al.
# Submitted via: dBpowerAMP V12.0
#
DISCID=910a140c
DTITLE=Keith Urban - The Ranch
DYEAR=1997
DGENRE=Country
TTITLE0=Walkin' the Country
TTITLE1=Homespun Love
TTITLE2=Just Some Love
TTITLE3=Some Days You Gotta Dance
TTITLE4=My Last Name
TTITLE5=Desiree
TTITLE6=Freedom's Finally Mine
TTITLE7=Hank Don't Fail Me Now
TTITLE8=Tangled up in Love
TTITLE9=Clutterbilly
TTITLE10=Man of the House
TTITLE11=Ghost in This Guitar
EXTD=
EXTT0=
EXTT1=
EXTT2=
EXTT3=
EXTT4=
EXTT5=
EXTT6=
EXTT7=
EXTT8=
EXTT9=
EXTT10=
EXTT11=
PLAYORDER=
